<?xml version="1.0" standalone="no"?>
<!DOCTYPE svg PUBLIC "-//W3C//DTD SVG 20010904//EN"
 "http://www.w3.org/TR/2001/REC-SVG-20010904/DTD/svg10.dtd">
<svg version="1.0" xmlns="http://www.w3.org/2000/svg"
 width="700.000000pt" height="700.000000pt" viewBox="0 0 700.000000 700.000000"
 preserveAspectRatio="xMidYMid meet">
<metadata>
Created by potrace 1.11, written by Peter Selinger 2001-2013
</metadata>
<g transform="translate(0.000000,700.000000) scale(0.100000,-0.100000)"
fill="#000000" stroke="none">
<path d="M1100 6985 c-213 -35 -414 -120 -588 -251 -79 -60 -224 -215 -283
-304 -95 -142 -148 -260 -189 -420 -26 -103 -32 -155 -34 -295 -5 -275 67
-518 222 -750 59 -88 147 -181 742 -778 371 -373 677 -680 680 -683 2 -2 -363
-372 -812 -822 -697 -697 -818 -823 -828 -857 -8 -29 -10 -272 -8 -860 3 -902
-1 -843 64 -908 59 -59 24 -57 918 -57 782 0 823 1 861 19 27 13 295 274 845
825 443 443 808 806 811 806 3 0 6 -24 8 -52 5 -116 43 -289 96 -442 143 -408
469 -773 870 -973 99 -50 303 -124 335 -122 3 0 18 -5 34 -11 16 -6 45 -13 65
-16 20 -3 63 -10 96 -16 88 -15 356 -17 460 -3 402 55 737 219 1019 499 313
311 492 714 513 1154 4 91 2 122 -11 157 -54 141 -244 175 -343 61 -35 -40
-50 -80 -57 -152 -15 -173 -122 -303 -285 -344 -180 -46 -373 60 -436 240 -13
37 -17 72 -30 238 -13 163 -89 378 -190 532 -63 96 -229 262 -325 325 -153 99
-325 163 -508 189 -19 2 -36 6 -38 8 -2 2 428 435 954 961 526 527 981 990
1011 1029 106 141 197 343 237 524 22 103 27 361 9 464 -39 219 -115 402 -238
570 -69 94 -229 244 -334 312 -236 154 -461 218 -748 213 -281 -5 -545 -98
-765 -268 -36 -28 -363 -348 -728 -711 -365 -364 -665 -663 -668 -665 -2 -3
-314 303 -692 680 -566 565 -702 695 -772 741 -242 159 -467 227 -745 225 -66
0 -154 -6 -195 -12z"/>
</g>
</svg>
